<svg width="90" height="40" viewBox="0 0 90 40" fill="none" xmlns="http://www.w3.org/2000/svg">
<path d="M76.3672 7.73269C78.9572 6.79878 80.4108 6.71369 83.0004 7.73269V31.5667C80.409 32.3845 78.9582 32.4433 76.3672 31.5667V7.73269Z" fill="black"/>
<path d="M73.0557 24.879H59.7893C59.9086 25.9412 60.1958 26.7324 60.651 27.2527C61.2905 28.0005 62.125 28.3744 63.1547 28.3744C63.805 28.3744 64.4228 28.2119 65.0081 27.8867C65.3658 27.6808 65.7505 27.3177 66.1624 26.7974C66.9374 25.8185 72.4867 26.0713 72.6818 27.399C71.6847 29.1331 70.4816 30.3796 69.0726 31.1383C67.6636 31.8861 65.6422 32.2601 63.0084 32.2601C60.7215 32.2601 58.9223 31.9403 57.6108 31.3009C56.2993 30.6505 55.21 29.6263 54.343 28.2281C53.4867 26.8191 53.0586 25.1662 53.0586 23.2695C53.0586 20.5707 53.9203 18.3867 55.6436 16.7176C57.3778 15.0484 59.7677 14.2139 62.8133 14.2139C65.2845 14.2139 67.2354 14.5878 68.6661 15.3357C70.0968 16.0835 71.1861 17.1674 71.9339 18.5872C72.6818 20.0071 73.0557 21.8551 73.0557 24.1311V24.879ZM66.325 21.7087C66.1949 20.4298 65.8481 19.5139 65.2845 18.9612C64.7317 18.4084 64.0001 18.132 63.0897 18.132C62.0383 18.132 61.1984 18.5493 60.5697 19.3839C60.1687 19.9041 59.914 20.6791 59.8056 21.7087H66.325Z" fill="black"/>
<path d="M30.8613 23.2857C30.8613 20.652 31.7501 18.4843 33.5276 16.7826C35.3051 15.0701 37.7059 14.2139 40.7298 14.2139C44.1873 14.2139 46.7994 15.2164 48.5661 17.2216C49.986 18.8365 50.6959 20.8254 50.6959 23.1882C50.6959 25.8436 49.8125 28.0222 48.0459 29.7238C46.29 31.4147 43.8568 32.2601 40.7461 32.2601C37.9714 32.2601 35.7278 31.5556 34.0153 30.1466C31.9127 28.4015 30.8613 26.1146 30.8613 23.2857ZM37.4945 23.2695C37.4945 24.8086 37.8034 25.9466 38.4212 26.6836C39.0499 27.4207 39.8357 27.7892 40.7786 27.7892C41.7324 27.7892 42.5128 27.4261 43.1197 26.6999C43.7375 25.9737 44.0464 24.8086 44.0464 23.2045C44.0464 21.7087 43.7375 20.5978 43.1197 19.8716C42.5019 19.1346 41.7378 18.7661 40.8274 18.7661C39.8628 18.7661 39.0661 19.14 38.4375 19.8879C37.8088 20.6249 37.4945 21.7521 37.4945 23.2695Z" fill="black"/>
<path d="M27.7125 31.3627C24.4701 32.2802 22.6727 32.3454 20.0713 31.3627L7 9.78851C10.087 8.01367 11.7633 7.8301 14.5924 9.78851L27.7125 31.3627ZM7 31.3627V11.837L13.2593 22.0957V31.3627C11.0572 32.2695 9.71911 32.3862 7 31.3627ZM27.7125 9.78851V29.3142L21.4532 19.0067V9.78851C24.0301 8.20253 25.3973 8.17774 27.7125 9.78851Z" fill="black"/>
</svg>
